<?xml version="1.0" standalone="no"?>
<!DOCTYPE svg PUBLIC "-//W3C//DTD SVG 20010904//EN"
 "http://www.w3.org/TR/2001/REC-SVG-20010904/DTD/svg10.dtd">
<svg version="1.0" xmlns="http://www.w3.org/2000/svg"
 width="1280.000000pt" height="1280.000000pt" viewBox="0 0 1280.000000 1280.000000"
 preserveAspectRatio="xMidYMid meet">
<metadata>
Created by potrace 1.14, written by Peter Selinger 2001-2017
</metadata>
<g transform="translate(0.000000,1280.000000) scale(0.100000,-0.100000)"
fill="#000000" stroke="none">
<path d="M4734 12156 c-387 -100 -664 -458 -664 -856 l0 -68 -122 -6 c-68 -4
-487 -17 -933 -31 -445 -13 -844 -27 -886 -30 -114 -8 -222 -39 -334 -95 -219
-110 -372 -289 -451 -530 -26 -79 -28 -97 -28 -250 -1 -129 3 -179 17 -230 10
-36 101 -261 203 -500 102 -239 186 -439 187 -443 1 -5 -291 -176 -649 -380
-358 -205 -674 -389 -702 -410 -29 -21 -77 -66 -108 -100 -235 -260 -298 -646
-156 -958 28 -63 3559 -6150 3630 -6259 256 -394 816 -512 1212 -256 36 24
1030 807 2210 1741 l2145 1699 660 183 c363 101 968 269 1345 373 609 169 696
195 785 240 224 112 386 308 455 550 30 105 38 307 17 412 -23 109 -69 222
-126 308 -27 41 -224 279 -436 529 l-387 454 575 576 576 576 -974 1495 c-729
1120 -991 1514 -1042 1569 -147 161 -318 251 -529 281 -169 23 -5175 440
-5285 440 -86 -1 -136 -7 -205 -24z m2881 -531 c1403 -118 2570 -218 2595
-221 114 -16 255 -94 327 -181 37 -45 1727 -2636 1738 -2665 4 -10 -288 -49
-1437 -191 -794 -98 -1479 -188 -1523 -199 -214 -53 -401 -187 -523 -373 -168
-255 -192 -586 -64 -859 22 -44 195 -321 386 -613 190 -293 349 -539 351 -546
4 -9 -59 -20 -262 -45 -278 -35 -2240 -278 -2678 -332 -260 -33 -325 -34 -418
-5 -140 42 -268 149 -331 276 -32 65 -114 398 -687 2804 -600 2517 -651 2737
-652 2820 -1 106 18 180 70 273 99 179 303 291 503 276 30 -3 1203 -101 2605
-219z m-2861 -3213 c325 -1362 607 -2547 628 -2632 28 -117 49 -180 87 -255
120 -241 327 -405 597 -472 144 -35 218 -29 1564 140 685 86 1470 184 1745
218 l500 61 765 764 765 764 370 -436 c204 -240 386 -460 406 -489 139 -204
111 -491 -67 -675 -109 -113 -116 -116 -884 -329 -377 -104 -1783 -494 -3125
-866 -1342 -372 -2577 -714 -2745 -761 -345 -97 -426 -109 -540 -80 -144 36
-278 132 -347 247 -44 74 -2771 6470 -2790 6543 -21 82 -14 231 15 311 47 128
156 251 277 310 106 52 126 54 1050 84 479 16 931 29 1005 30 l135 1 589
-2478z m-1740 -2266 c620 -1454 1146 -2674 1168 -2710 81 -135 226 -266 376
-337 135 -65 214 -82 382 -83 129 0 156 3 245 27 55 15 815 226 1688 468 874
242 1591 439 1593 437 4 -5 -3598 -2857 -3666 -2903 -64 -43 -144 -73 -236
-87 -186 -29 -410 73 -517 235 -19 28 -837 1434 -1817 3122 -1193 2054 -1791
3093 -1808 3140 -31 90 -35 230 -8 320 41 137 135 259 254 327 282 162 1208
688 1212 688 3 0 513 -1190 1134 -2644z m7931 894 c-627 -627 -1142 -1140
-1145 -1140 -5 0 -680 1031 -732 1119 -168 280 -67 635 221 779 44 22 99 43
123 47 38 7 2619 331 2658 334 8 0 -498 -512 -1125 -1139z"/>
</g>
</svg>
