<?xml version="1.0" encoding="UTF-8" standalone="no"?>
<svg
   version="1.1"
   viewBox="0 0 428.7485 389.41742"
   xml:space="preserve"
   id="svg647"
   xmlns="http://www.w3.org/2000/svg"
   xmlns:svg="http://www.w3.org/2000/svg">
<desc
   id="desc605">Created with Fabric.js 4.4.0</desc>
<defs
   id="defs607" />

<g
   transform="matrix(1.8117904,0,0,1.8117904,214.37427,194.70871)"
   id="logo-logo">
<g
   paint-order="stroke"
   id="g632">
		<g
   transform="scale(1.0538082)"
   id="g614">
<path
   style="opacity:1;fill:#565656;fill-rule:nonzero;stroke:none;stroke-width:1;stroke-linecap:butt;stroke-linejoin:miter;stroke-miterlimit:4;stroke-dasharray:none;stroke-dashoffset:0"
   paint-order="stroke"
   transform="translate(-249.99981,-249.98979)"
   d="m 342.01,235.16 20.27,-20.27 -33.92,-52.09 c -2.66,-4.08 -6.97,-6.66 -11.82,-7.07 l -90.63,-7.66 c -5.08,-0.44 -9.89,1.54 -13.21,5.4 -2.77,3.21 -4.06,7.26 -3.74,11.38 l -33.59,1.08 c -5.18,0.17 -9.93,2.87 -12.72,7.24 -2.79,4.37 -3.24,9.82 -1.2,14.59 l 6.18,14.48 -21.97,12.49 c -3.67,2.08 -6.29,5.47 -7.39,9.54 -1.1,4.07 -0.54,8.32 1.58,11.97 l 62.68,107.93 c 2.29,3.94 6.17,6.68 10.64,7.53 0.97,0.18 1.95,0.27 2.93,0.27 3.51,0 6.94,-1.18 9.73,-3.39 l 75.4,-59.71 46.29,-12.83 c 5.19,-1.44 9.22,-5.37 10.8,-10.51 1.58,-5.14 0.44,-10.66 -3.04,-14.76 z"
   stroke-linecap="round"
   id="path612" />
</g>
		<g
   transform="matrix(1.0538082,0,0,1.0538082,-36.398141,28.343445)"
   id="g618">
<path
   style="opacity:1;fill:#ffa94d;fill-rule:nonzero;stroke:none;stroke-width:1;stroke-linecap:butt;stroke-linejoin:miter;stroke-miterlimit:4;stroke-dasharray:none;stroke-dashoffset:0"
   paint-order="stroke"
   transform="translate(-215.46018,-276.886)"
   d="m 224.31,309.74 c -6.15,0 -11.95,-3.65 -14.46,-9.53 l -39.43,-92.42 -21.38,12.16 c -2.26,1.29 -3.88,3.38 -4.56,5.89 -0.68,2.51 -0.33,5.14 0.97,7.39 l 62.68,107.93 c 1.41,2.43 3.81,4.13 6.57,4.65 2.76,0.53 5.61,-0.18 7.82,-1.92 l 64.26,-50.88 -58.31,16.16 c -1.39,0.38 -2.78,0.57 -4.16,0.57 z"
   stroke-linecap="round"
   id="path616" />
</g>
		<g
   transform="matrix(1.0538082,0,0,1.0538082,10.552436,-13.398856)"
   id="g622">
<path
   style="opacity:1;fill:#a9e34b;fill-rule:nonzero;stroke:none;stroke-width:1;stroke-linecap:butt;stroke-linejoin:miter;stroke-miterlimit:4;stroke-dasharray:none;stroke-dashoffset:0"
   paint-order="stroke"
   transform="translate(-260.01343,-237.27509)"
   d="m 351.13,254.68 -12.96,-15.26 -13.81,13.81 -2.2,2.2 -2.25,2.25 -8.65,8.65 -61.76,7.67 c -0.65,0.08 -1.31,0.12 -1.95,0.12 -7.17,0 -13.54,-4.91 -15.24,-12.05 l -13,-54.56 -0.89,-3.74 -0.89,-3.74 -6.96,-29.22 -34.59,1.11 c -3.25,0.1 -6.11,1.73 -7.85,4.47 -1.75,2.74 -2.02,6.02 -0.74,9.01 l 5.91,13.85 1.19,2.78 1.18,2.78 39.7,93.05 c 1.9,4.45 6.84,6.82 11.5,5.53 l 72.01,-19.96 7.43,-2.06 7.43,-2.06 32.59,-9.03 c 3.2,-0.89 5.7,-3.31 6.67,-6.49 0.98,-3.17 0.28,-6.58 -1.87,-9.11 z"
   stroke-linecap="round"
   id="path620" />
</g>
		<g
   transform="matrix(1.0538082,0,0,1.0538082,36.398038,-41.015531)"
   id="g626">
<path
   style="opacity:1;fill:#3bc9db;fill-rule:nonzero;stroke:none;stroke-width:1;stroke-linecap:butt;stroke-linejoin:miter;stroke-miterlimit:4;stroke-dasharray:none;stroke-dashoffset:0"
   paint-order="stroke"
   transform="translate(-284.53934,-211.06854)"
   d="m 323.75,166.08 c -1.64,-2.52 -4.3,-4.11 -7.3,-4.37 l -90.63,-7.66 c -0.28,-0.02 -0.56,-0.04 -0.84,-0.04 -2.82,0 -5.45,1.2 -7.31,3.37 -1.76,2.05 -2.56,4.64 -2.29,7.27 0.04,0.43 0.11,0.86 0.21,1.29 l 0.4,1.69 0.71,2.98 7.79,32.7 0.89,3.74 0.89,3.74 11.88,49.89 c 1.15,4.81 5.71,7.99 10.61,7.37 l 55.47,-6.88 -12.12,-18.61 c -0.21,-0.32 -0.4,-0.64 -0.58,-0.97 -0.72,-1.29 -1.23,-2.65 -1.56,-4.05 -0.27,-1.15 -0.41,-2.33 -0.41,-3.51 0,-2.25 0.48,-4.51 1.47,-6.64 2.29,-4.94 6.89,-8.28 12.29,-8.96 l 15.39,-1.91 3.56,-0.44 3.56,-0.44 27.92,-3.46 z"
   stroke-linecap="round"
   id="path624" />
</g>
		<g
   transform="matrix(1.0538082,0,0,1.0538082,76.765226,-11.818242)"
   id="g630">
<path
   style="opacity:1;fill:#ffffff;fill-rule:nonzero;stroke:none;stroke-width:1;stroke-linecap:butt;stroke-linejoin:miter;stroke-miterlimit:4;stroke-dasharray:none;stroke-dashoffset:0"
   paint-order="stroke"
   transform="translate(-322.84535,-238.775)"
   d="m 330.49,221.11 -3.56,0.44 -3.56,0.44 -19.3,2.39 c -3.34,0.41 -6.17,2.48 -7.59,5.53 -1.07,2.3 -1.19,4.86 -0.39,7.18 0.26,0.76 0.61,1.49 1.06,2.19 l 1.53,2.36 3.12,4.79 8.11,12.45 5.83,-5.83 2.2,-2.2 2.15,-2.15 14.04,-14.04 2.13,-2.13 2.13,-2.13 11.73,-11.73 z"
   stroke-linecap="round"
   id="path628" />
</g>
</g>
</g>
</svg>
